<svg width="50" height="50" viewBox="0 0 50 50" fill="none" xmlns="http://www.w3.org/2000/svg">
<circle cx="25" cy="25" r="25" fill="#9873FF"/>
<path d="M12.1465 32.1758C11.5195 32.1758 10.9717 32.1318 10.5029 32.0439C10.04 31.9561 9.60645 31.8096 9.20215 31.6045V29.4248C9.6416 29.6768 10.0928 29.873 10.5557 30.0137C11.0244 30.1484 11.5078 30.2158 12.0059 30.2158C12.2812 30.2158 12.5391 30.1777 12.7793 30.1016C13.0254 30.0254 13.2246 29.9082 13.377 29.75C13.5293 29.5918 13.6055 29.3926 13.6055 29.1523C13.6055 28.9883 13.5674 28.8418 13.4912 28.7129C13.415 28.584 13.2686 28.4434 13.0518 28.291C12.8408 28.1328 12.5332 27.9424 12.1289 27.7197C11.7246 27.4912 11.3789 27.2568 11.0918 27.0166C10.8105 26.7764 10.5938 26.5039 10.4414 26.1992C10.2949 25.8945 10.2217 25.5371 10.2217 25.127C10.2217 24.4473 10.3711 23.876 10.6699 23.4131C10.9688 22.9443 11.3965 22.5898 11.9531 22.3496C12.5156 22.1094 13.1865 21.9893 13.9658 21.9893C14.5342 21.9893 15.082 22.0537 15.6094 22.1826C16.1367 22.3115 16.6523 22.5254 17.1562 22.8242L16.2861 24.7139C15.9404 24.5029 15.5713 24.3271 15.1787 24.1865C14.792 24.0459 14.4053 23.9756 14.0186 23.9756C13.7314 23.9756 13.4736 24.043 13.2451 24.1777C13.0166 24.3125 12.9023 24.5205 12.9023 24.8018C12.9023 24.9541 12.9434 25.0947 13.0254 25.2236C13.1074 25.3467 13.2451 25.4727 13.4385 25.6016C13.6377 25.7305 13.9043 25.8828 14.2383 26.0586C14.6367 26.2637 14.9883 26.4922 15.293 26.7441C15.6035 26.9902 15.8467 27.2773 16.0225 27.6055C16.1982 27.9277 16.2861 28.3115 16.2861 28.7568C16.2861 29.5068 16.1162 30.1367 15.7764 30.6465C15.4365 31.1504 14.9561 31.5312 14.335 31.7891C13.7197 32.0469 12.9902 32.1758 12.1465 32.1758ZM17.8506 32L20.751 18.3242H23.3965L22.0957 24.4238C22.0547 24.6172 21.999 24.8398 21.9287 25.0918C21.8584 25.3438 21.7881 25.584 21.7178 25.8125C21.6475 26.0352 21.5947 26.2139 21.5596 26.3486H21.6299L25.6113 22.1738H28.6348L24.2578 26.6035L26.7627 32H23.8096L22.2012 28.3086L21.1465 28.9414L20.4961 32H17.8506ZM33.1172 32.1758C32.707 32.1758 32.3467 32.1172 32.0361 32C31.7256 31.877 31.459 31.71 31.2363 31.499C31.0195 31.2822 30.8379 31.0303 30.6914 30.7432H30.6211L30.1113 32H28.0811L30.9814 18.3242H33.627L33.082 20.8555C33.0293 21.0957 32.9619 21.377 32.8799 21.6992C32.7979 22.0156 32.71 22.335 32.6162 22.6572C32.5225 22.9736 32.4316 23.249 32.3438 23.4834H32.4141C32.625 23.2197 32.8447 22.9736 33.0732 22.7451C33.3018 22.5166 33.5625 22.335 33.8555 22.2002C34.1543 22.0596 34.5029 21.9893 34.9014 21.9893C35.376 21.9893 35.8242 22.1064 36.2461 22.3408C36.668 22.5752 37.0107 22.9531 37.2744 23.4746C37.5381 23.9961 37.6699 24.6904 37.6699 25.5576C37.6699 26.1963 37.5996 26.835 37.459 27.4736C37.3242 28.1064 37.125 28.7041 36.8613 29.2666C36.6035 29.8291 36.2871 30.3301 35.9121 30.7695C35.543 31.209 35.124 31.5547 34.6553 31.8066C34.1865 32.0527 33.6738 32.1758 33.1172 32.1758ZM32.6689 30.04C32.9268 30.04 33.1729 29.958 33.4072 29.7939C33.6416 29.624 33.8555 29.3955 34.0488 29.1084C34.2422 28.8154 34.4092 28.4844 34.5498 28.1152C34.6904 27.7402 34.7988 27.3447 34.875 26.9287C34.9512 26.5127 34.9893 26.0967 34.9893 25.6807C34.9893 25.165 34.8926 24.7783 34.6992 24.5205C34.5117 24.2627 34.2246 24.1338 33.8379 24.1338C33.5566 24.1338 33.2988 24.207 33.0645 24.3535C32.8359 24.5 32.6338 24.6992 32.458 24.9512C32.2822 25.1973 32.1299 25.4756 32.001 25.7861C31.8721 26.0967 31.7666 26.416 31.6846 26.7441C31.6025 27.0664 31.541 27.3799 31.5 27.6846C31.4648 27.9893 31.4473 28.2588 31.4473 28.4932C31.4473 28.9561 31.5557 29.3311 31.7725 29.6182C31.9951 29.8994 32.2939 30.04 32.6689 30.04ZM40.0605 32.2373C39.5625 32.2373 39.2109 32.1084 39.0059 31.8506C38.8008 31.5928 38.6982 31.3057 38.6982 30.9893C38.6982 30.5557 38.833 30.1572 39.1025 29.7939C39.3721 29.4307 39.835 29.249 40.4912 29.249C40.8896 29.249 41.209 29.3604 41.4492 29.583C41.6895 29.8057 41.8096 30.1191 41.8096 30.5234C41.8096 31.0215 41.6514 31.4316 41.335 31.7539C41.0186 32.0762 40.5938 32.2373 40.0605 32.2373Z" fill="white"/>
</svg>
